<?xml version="1.0" encoding="UTF-8" standalone="no"?>
<!DOCTYPE svg PUBLIC "-//W3C//DTD SVG 1.1//EN"
 "http://www.w3.org/Graphics/SVG/1.1/DTD/svg11.dtd">
<!-- Generated by graphviz version 8.1.0 (20230707.0739)
 -->
<!-- Title: Tree Pages: 1 -->
<svg width="688pt" height="671pt"
 viewBox="0.00 0.00 688.38 671.00" xmlns="http://www.w3.org/2000/svg" xmlns:xlink="http://www.w3.org/1999/xlink">
<g id="graph0" class="graph" transform="scale(1 1) rotate(0) translate(4 667)">
<title>Tree</title>
<polygon fill="white" stroke="none" points="-4,4 -4,-667 684.38,-667 684.38,4 -4,4"/>
<!-- 0 -->
<g id="node1" class="node">
<title>0</title>
<path fill="#ffffff" stroke="black" d="M396.88,-663C396.88,-663 289.38,-663 289.38,-663 283.38,-663 277.38,-657 277.38,-651 277.38,-651 277.38,-592 277.38,-592 277.38,-586 283.38,-580 289.38,-580 289.38,-580 396.88,-580 396.88,-580 402.88,-580 408.88,-586 408.88,-592 408.88,-592 408.88,-651 408.88,-651 408.88,-657 402.88,-663 396.88,-663"/>
<text text-anchor="middle" x="343.12" y="-645.7" font-family="Helvetica,sans-Serif" font-size="14.00">petal_width &lt;= 0.8</text>
<text text-anchor="middle" x="343.12" y="-630.7" font-family="Helvetica,sans-Serif" font-size="14.00">entropy = 1.585</text>
<text text-anchor="middle" x="343.12" y="-615.7" font-family="Helvetica,sans-Serif" font-size="14.00">samples = 150</text>
<text text-anchor="middle" x="343.12" y="-600.7" font-family="Helvetica,sans-Serif" font-size="14.00">value = [50, 50, 50]</text>
<text text-anchor="middle" x="343.12" y="-585.7" font-family="Helvetica,sans-Serif" font-size="14.00">class = setosa</text>
</g>
<!-- 1 -->
<g id="node2" class="node">
<title>1</title>
<path fill="#e58139" stroke="black" d="M317.38,-536.5C317.38,-536.5 224.88,-536.5 224.88,-536.5 218.88,-536.5 212.88,-530.5 212.88,-524.5 212.88,-524.5 212.88,-480.5 212.88,-480.5 212.88,-474.5 218.88,-468.5 224.88,-468.5 224.88,-468.5 317.38,-468.5 317.38,-468.5 323.38,-468.5 329.38,-474.5 329.38,-480.5 329.38,-480.5 329.38,-524.5 329.38,-524.5 329.38,-530.5 323.38,-536.5 317.38,-536.5"/>
<text text-anchor="middle" x="271.12" y="-519.2" font-family="Helvetica,sans-Serif" font-size="14.00">entropy = 0.0</text>
<text text-anchor="middle" x="271.12" y="-504.2" font-family="Helvetica,sans-Serif" font-size="14.00">samples = 50</text>
<text text-anchor="middle" x="271.12" y="-489.2" font-family="Helvetica,sans-Serif" font-size="14.00">value = [50, 0, 0]</text>
<text text-anchor="middle" x="271.12" y="-474.2" font-family="Helvetica,sans-Serif" font-size="14.00">class = setosa</text>
</g>
<!-- 0&#45;&gt;1 -->
<g id="edge1" class="edge">
<title>0&#45;&gt;1</title>
<path fill="none" stroke="black" d="M317.94,-579.58C311.29,-568.77 304.1,-557.09 297.4,-546.19"/>
<polygon fill="black" stroke="black" points="299.88,-544.54 291.65,-537.86 293.92,-548.21 299.88,-544.54"/>
<text text-anchor="middle" x="285.86" y="-555.38" font-family="Helvetica,sans-Serif" font-size="14.00">True</text>
</g>
<!-- 2 -->
<g id="node3" class="node">
<title>2</title>
<path fill="#ffffff" stroke="black" d="M470.38,-544C470.38,-544 359.88,-544 359.88,-544 353.88,-544 347.88,-538 347.88,-532 347.88,-532 347.88,-473 347.88,-473 347.88,-467 353.88,-461 359.88,-461 359.88,-461 470.38,-461 470.38,-461 476.38,-461 482.38,-467 482.38,-473 482.38,-473 482.38,-532 482.38,-532 482.38,-538 476.38,-544 470.38,-544"/>
<text text-anchor="middle" x="415.12" y="-526.7" font-family="Helvetica,sans-Serif" font-size="14.00">petal_width &lt;= 1.75</text>
<text text-anchor="middle" x="415.12" y="-511.7" font-family="Helvetica,sans-Serif" font-size="14.00">entropy = 1.0</text>
<text text-anchor="middle" x="415.12" y="-496.7" font-family="Helvetica,sans-Serif" font-size="14.00">samples = 100</text>
<text text-anchor="middle" x="415.12" y="-481.7" font-family="Helvetica,sans-Serif" font-size="14.00">value = [0, 50, 50]</text>
<text text-anchor="middle" x="415.12" y="-466.7" font-family="Helvetica,sans-Serif" font-size="14.00">class = versicolor</text>
</g>
<!-- 0&#45;&gt;2 -->
<g id="edge2" class="edge">
<title>0&#45;&gt;2</title>
<path fill="none" stroke="black" d="M368.31,-579.58C373.49,-571.16 379,-562.2 384.35,-553.5"/>
<polygon fill="black" stroke="black" points="387.82,-555.55 390.08,-545.2 381.86,-551.88 387.82,-555.55"/>
<text text-anchor="middle" x="395.87" y="-562.72" font-family="Helvetica,sans-Serif" font-size="14.00">False</text>
</g>
<!-- 3 -->
<g id="node4" class="node">
<title>3</title>
<path fill="#4de88e" stroke="black" d="M394,-425C394,-425 278.25,-425 278.25,-425 272.25,-425 266.25,-419 266.25,-413 266.25,-413 266.25,-354 266.25,-354 266.25,-348 272.25,-342 278.25,-342 278.25,-342 394,-342 394,-342 400,-342 406,-348 406,-354 406,-354 406,-413 406,-413 406,-419 400,-425 394,-425"/>
<text text-anchor="middle" x="336.12" y="-407.7" font-family="Helvetica,sans-Serif" font-size="14.00">petal_length &lt;= 4.95</text>
<text text-anchor="middle" x="336.12" y="-392.7" font-family="Helvetica,sans-Serif" font-size="14.00">entropy = 0.445</text>
<text text-anchor="middle" x="336.12" y="-377.7" font-family="Helvetica,sans-Serif" font-size="14.00">samples = 54</text>
<text text-anchor="middle" x="336.12" y="-362.7" font-family="Helvetica,sans-Serif" font-size="14.00">value = [0, 49, 5]</text>
<text text-anchor="middle" x="336.12" y="-347.7" font-family="Helvetica,sans-Serif" font-size="14.00">class = versicolor</text>
</g>
<!-- 2&#45;&gt;3 -->
<g id="edge3" class="edge">
<title>2&#45;&gt;3</title>
<path fill="none" stroke="black" d="M387.49,-460.58C381.75,-452.07 375.63,-443.01 369.7,-434.23"/>
<polygon fill="black" stroke="black" points="372.1,-432.53 363.61,-426.2 366.3,-436.45 372.1,-432.53"/>
</g>
<!-- 12 -->
<g id="node13" class="node">
<title>12</title>
<path fill="#843de6" stroke="black" d="M552,-425C552,-425 436.25,-425 436.25,-425 430.25,-425 424.25,-419 424.25,-413 424.25,-413 424.25,-354 424.25,-354 424.25,-348 430.25,-342 436.25,-342 436.25,-342 552,-342 552,-342 558,-342 564,-348 564,-354 564,-354 564,-413 564,-413 564,-419 558,-425 552,-425"/>
<text text-anchor="middle" x="494.12" y="-407.7" font-family="Helvetica,sans-Serif" font-size="14.00">petal_length &lt;= 4.85</text>
<text text-anchor="middle" x="494.12" y="-392.7" font-family="Helvetica,sans-Serif" font-size="14.00">entropy = 0.151</text>
<text text-anchor="middle" x="494.12" y="-377.7" font-family="Helvetica,sans-Serif" font-size="14.00">samples = 46</text>
<text text-anchor="middle" x="494.12" y="-362.7" font-family="Helvetica,sans-Serif" font-size="14.00">value = [0, 1, 45]</text>
<text text-anchor="middle" x="494.12" y="-347.7" font-family="Helvetica,sans-Serif" font-size="14.00">class = virginica</text>
</g>
<!-- 2&#45;&gt;12 -->
<g id="edge12" class="edge">
<title>2&#45;&gt;12</title>
<path fill="none" stroke="black" d="M442.76,-460.58C448.5,-452.07 454.62,-443.01 460.55,-434.23"/>
<polygon fill="black" stroke="black" points="463.95,-436.45 466.64,-426.2 458.15,-432.53 463.95,-436.45"/>
</g>
<!-- 4 -->
<g id="node5" class="node">
<title>4</title>
<path fill="#3de684" stroke="black" d="M243.38,-306C243.38,-306 132.88,-306 132.88,-306 126.88,-306 120.88,-300 120.88,-294 120.88,-294 120.88,-235 120.88,-235 120.88,-229 126.88,-223 132.88,-223 132.88,-223 243.38,-223 243.38,-223 249.38,-223 255.38,-229 255.38,-235 255.38,-235 255.38,-294 255.38,-294 255.38,-300 249.38,-306 243.38,-306"/>
<text text-anchor="middle" x="188.12" y="-288.7" font-family="Helvetica,sans-Serif" font-size="14.00">petal_width &lt;= 1.65</text>
<text text-anchor="middle" x="188.12" y="-273.7" font-family="Helvetica,sans-Serif" font-size="14.00">entropy = 0.146</text>
<text text-anchor="middle" x="188.12" y="-258.7" font-family="Helvetica,sans-Serif" font-size="14.00">samples = 48</text>
<text text-anchor="middle" x="188.12" y="-243.7" font-family="Helvetica,sans-Serif" font-size="14.00">value = [0, 47, 1]</text>
<text text-anchor="middle" x="188.12" y="-228.7" font-family="Helvetica,sans-Serif" font-size="14.00">class = versicolor</text>
</g>
<!-- 3&#45;&gt;4 -->
<g id="edge4" class="edge">
<title>3&#45;&gt;4</title>
<path fill="none" stroke="black" d="M284.36,-341.58C272.76,-332.41 260.35,-322.6 248.43,-313.17"/>
<polygon fill="black" stroke="black" points="250.87,-309.85 240.86,-306.4 246.53,-315.35 250.87,-309.85"/>
</g>
<!-- 7 -->
<g id="node8" class="node">
<title>7</title>
<path fill="#c09cf2" stroke="black" d="M396.38,-306C396.38,-306 285.88,-306 285.88,-306 279.88,-306 273.88,-300 273.88,-294 273.88,-294 273.88,-235 273.88,-235 273.88,-229 279.88,-223 285.88,-223 285.88,-223 396.38,-223 396.38,-223 402.38,-223 408.38,-229 408.38,-235 408.38,-235 408.38,-294 408.38,-294 408.38,-300 402.38,-306 396.38,-306"/>
<text text-anchor="middle" x="341.12" y="-288.7" font-family="Helvetica,sans-Serif" font-size="14.00">petal_width &lt;= 1.55</text>
<text text-anchor="middle" x="341.12" y="-273.7" font-family="Helvetica,sans-Serif" font-size="14.00">entropy = 0.918</text>
<text text-anchor="middle" x="341.12" y="-258.7" font-family="Helvetica,sans-Serif" font-size="14.00">samples = 6</text>
<text text-anchor="middle" x="341.12" y="-243.7" font-family="Helvetica,sans-Serif" font-size="14.00">value = [0, 2, 4]</text>
<text text-anchor="middle" x="341.12" y="-228.7" font-family="Helvetica,sans-Serif" font-size="14.00">class = virginica</text>
</g>
<!-- 3&#45;&gt;7 -->
<g id="edge7" class="edge">
<title>3&#45;&gt;7</title>
<path fill="none" stroke="black" d="M337.87,-341.58C338.21,-333.7 338.57,-325.34 338.92,-317.17"/>
<polygon fill="black" stroke="black" points="342.46,-317.34 339.39,-307.2 335.46,-317.04 342.46,-317.34"/>
</g>
<!-- 5 -->
<g id="node6" class="node">
<title>5</title>
<path fill="#39e581" stroke="black" d="M108.25,-179.5C108.25,-179.5 12,-179.5 12,-179.5 6,-179.5 0,-173.5 0,-167.5 0,-167.5 0,-123.5 0,-123.5 0,-117.5 6,-111.5 12,-111.5 12,-111.5 108.25,-111.5 108.25,-111.5 114.25,-111.5 120.25,-117.5 120.25,-123.5 120.25,-123.5 120.25,-167.5 120.25,-167.5 120.25,-173.5 114.25,-179.5 108.25,-179.5"/>
<text text-anchor="middle" x="60.12" y="-162.2" font-family="Helvetica,sans-Serif" font-size="14.00">entropy = 0.0</text>
<text text-anchor="middle" x="60.12" y="-147.2" font-family="Helvetica,sans-Serif" font-size="14.00">samples = 47</text>
<text text-anchor="middle" x="60.12" y="-132.2" font-family="Helvetica,sans-Serif" font-size="14.00">value = [0, 47, 0]</text>
<text text-anchor="middle" x="60.12" y="-117.2" font-family="Helvetica,sans-Serif" font-size="14.00">class = versicolor</text>
</g>
<!-- 4&#45;&gt;5 -->
<g id="edge5" class="edge">
<title>4&#45;&gt;5</title>
<path fill="none" stroke="black" d="M143.36,-222.58C130.82,-211.12 117.2,-198.67 104.67,-187.22"/>
<polygon fill="black" stroke="black" points="107.37,-185.02 97.62,-180.86 102.64,-190.19 107.37,-185.02"/>
</g>
<!-- 6 -->
<g id="node7" class="node">
<title>6</title>
<path fill="#8139e5" stroke="black" d="M238.12,-179.5C238.12,-179.5 150.12,-179.5 150.12,-179.5 144.12,-179.5 138.12,-173.5 138.12,-167.5 138.12,-167.5 138.12,-123.5 138.12,-123.5 138.12,-117.5 144.12,-111.5 150.12,-111.5 150.12,-111.5 238.12,-111.5 238.12,-111.5 244.12,-111.5 250.12,-117.5 250.12,-123.5 250.12,-123.5 250.12,-167.5 250.12,-167.5 250.12,-173.5 244.12,-179.5 238.12,-179.5"/>
<text text-anchor="middle" x="194.12" y="-162.2" font-family="Helvetica,sans-Serif" font-size="14.00">entropy = 0.0</text>
<text text-anchor="middle" x="194.12" y="-147.2" font-family="Helvetica,sans-Serif" font-size="14.00">samples = 1</text>
<text text-anchor="middle" x="194.12" y="-132.2" font-family="Helvetica,sans-Serif" font-size="14.00">value = [0, 0, 1]</text>
<text text-anchor="middle" x="194.12" y="-117.2" font-family="Helvetica,sans-Serif" font-size="14.00">class = virginica</text>
</g>
<!-- 4&#45;&gt;6 -->
<g id="edge6" class="edge">
<title>4&#45;&gt;6</title>
<path fill="none" stroke="black" d="M190.22,-222.58C190.76,-212.21 191.33,-201.03 191.87,-190.52"/>
<polygon fill="black" stroke="black" points="195.4,-191.03 192.41,-180.86 188.41,-190.67 195.4,-191.03"/>
</g>
<!-- 8 -->
<g id="node9" class="node">
<title>8</title>
<path fill="#8139e5" stroke="black" d="M379.12,-179.5C379.12,-179.5 291.12,-179.5 291.12,-179.5 285.12,-179.5 279.12,-173.5 279.12,-167.5 279.12,-167.5 279.12,-123.5 279.12,-123.5 279.12,-117.5 285.12,-111.5 291.12,-111.5 291.12,-111.5 379.12,-111.5 379.12,-111.5 385.12,-111.5 391.12,-117.5 391.12,-123.5 391.12,-123.5 391.12,-167.5 391.12,-167.5 391.12,-173.5 385.12,-179.5 379.12,-179.5"/>
<text text-anchor="middle" x="335.12" y="-162.2" font-family="Helvetica,sans-Serif" font-size="14.00">entropy = 0.0</text>
<text text-anchor="middle" x="335.12" y="-147.2" font-family="Helvetica,sans-Serif" font-size="14.00">samples = 3</text>
<text text-anchor="middle" x="335.12" y="-132.2" font-family="Helvetica,sans-Serif" font-size="14.00">value = [0, 0, 3]</text>
<text text-anchor="middle" x="335.12" y="-117.2" font-family="Helvetica,sans-Serif" font-size="14.00">class = virginica</text>
</g>
<!-- 7&#45;&gt;8 -->
<g id="edge8" class="edge">
<title>7&#45;&gt;8</title>
<path fill="none" stroke="black" d="M339.03,-222.58C338.49,-212.21 337.92,-201.03 337.38,-190.52"/>
<polygon fill="black" stroke="black" points="340.84,-190.67 336.84,-180.86 333.85,-191.03 340.84,-190.67"/>
</g>
<!-- 9 -->
<g id="node10" class="node">
<title>9</title>
<path fill="#9cf2c0" stroke="black" d="M537,-187C537,-187 421.25,-187 421.25,-187 415.25,-187 409.25,-181 409.25,-175 409.25,-175 409.25,-116 409.25,-116 409.25,-110 415.25,-104 421.25,-104 421.25,-104 537,-104 537,-104 543,-104 549,-110 549,-116 549,-116 549,-175 549,-175 549,-181 543,-187 537,-187"/>
<text text-anchor="middle" x="479.12" y="-169.7" font-family="Helvetica,sans-Serif" font-size="14.00">petal_length &lt;= 5.45</text>
<text text-anchor="middle" x="479.12" y="-154.7" font-family="Helvetica,sans-Serif" font-size="14.00">entropy = 0.918</text>
<text text-anchor="middle" x="479.12" y="-139.7" font-family="Helvetica,sans-Serif" font-size="14.00">samples = 3</text>
<text text-anchor="middle" x="479.12" y="-124.7" font-family="Helvetica,sans-Serif" font-size="14.00">value = [0, 2, 1]</text>
<text text-anchor="middle" x="479.12" y="-109.7" font-family="Helvetica,sans-Serif" font-size="14.00">class = versicolor</text>
</g>
<!-- 7&#45;&gt;9 -->
<g id="edge9" class="edge">
<title>7&#45;&gt;9</title>
<path fill="none" stroke="black" d="M389.39,-222.58C400.17,-213.44 411.69,-203.67 422.76,-194.29"/>
<polygon fill="black" stroke="black" points="424.76,-196.34 430.12,-187.2 420.23,-191 424.76,-196.34"/>
</g>
<!-- 10 -->
<g id="node11" class="node">
<title>10</title>
<path fill="#39e581" stroke="black" d="M460.25,-68C460.25,-68 364,-68 364,-68 358,-68 352,-62 352,-56 352,-56 352,-12 352,-12 352,-6 358,0 364,0 364,0 460.25,0 460.25,0 466.25,0 472.25,-6 472.25,-12 472.25,-12 472.25,-56 472.25,-56 472.25,-62 466.25,-68 460.25,-68"/>
<text text-anchor="middle" x="412.12" y="-50.7" font-family="Helvetica,sans-Serif" font-size="14.00">entropy = 0.0</text>
<text text-anchor="middle" x="412.12" y="-35.7" font-family="Helvetica,sans-Serif" font-size="14.00">samples = 2</text>
<text text-anchor="middle" x="412.12" y="-20.7" font-family="Helvetica,sans-Serif" font-size="14.00">value = [0, 2, 0]</text>
<text text-anchor="middle" x="412.12" y="-5.7" font-family="Helvetica,sans-Serif" font-size="14.00">class = versicolor</text>
</g>
<!-- 9&#45;&gt;10 -->
<g id="edge10" class="edge">
<title>9&#45;&gt;10</title>
<path fill="none" stroke="black" d="M454.18,-103.73C448.93,-95.15 443.38,-86.09 438.1,-77.46"/>
<polygon fill="black" stroke="black" points="440.7,-76 432.5,-69.3 434.73,-79.66 440.7,-76"/>
</g>
<!-- 11 -->
<g id="node12" class="node">
<title>11</title>
<path fill="#8139e5" stroke="black" d="M590.12,-68C590.12,-68 502.12,-68 502.12,-68 496.12,-68 490.12,-62 490.12,-56 490.12,-56 490.12,-12 490.12,-12 490.12,-6 496.12,0 502.12,0 502.12,0 590.12,0 590.12,0 596.12,0 602.12,-6 602.12,-12 602.12,-12 602.12,-56 602.12,-56 602.12,-62 596.12,-68 590.12,-68"/>
<text text-anchor="middle" x="546.12" y="-50.7" font-family="Helvetica,sans-Serif" font-size="14.00">entropy = 0.0</text>
<text text-anchor="middle" x="546.12" y="-35.7" font-family="Helvetica,sans-Serif" font-size="14.00">samples = 1</text>
<text text-anchor="middle" x="546.12" y="-20.7" font-family="Helvetica,sans-Serif" font-size="14.00">value = [0, 0, 1]</text>
<text text-anchor="middle" x="546.12" y="-5.7" font-family="Helvetica,sans-Serif" font-size="14.00">class = virginica</text>
</g>
<!-- 9&#45;&gt;11 -->
<g id="edge11" class="edge">
<title>9&#45;&gt;11</title>
<path fill="none" stroke="black" d="M504.07,-103.73C509.32,-95.15 514.87,-86.09 520.15,-77.46"/>
<polygon fill="black" stroke="black" points="523.52,-79.66 525.75,-69.3 517.55,-76 523.52,-79.66"/>
</g>
<!-- 13 -->
<g id="node14" class="node">
<title>13</title>
<path fill="#c09cf2" stroke="black" d="M534.12,-298.5C534.12,-298.5 446.12,-298.5 446.12,-298.5 440.12,-298.5 434.12,-292.5 434.12,-286.5 434.12,-286.5 434.12,-242.5 434.12,-242.5 434.12,-236.5 440.12,-230.5 446.12,-230.5 446.12,-230.5 534.12,-230.5 534.12,-230.5 540.12,-230.5 546.12,-236.5 546.12,-242.5 546.12,-242.5 546.12,-286.5 546.12,-286.5 546.12,-292.5 540.12,-298.5 534.12,-298.5"/>
<text text-anchor="middle" x="490.12" y="-281.2" font-family="Helvetica,sans-Serif" font-size="14.00">entropy = 0.918</text>
<text text-anchor="middle" x="490.12" y="-266.2" font-family="Helvetica,sans-Serif" font-size="14.00">samples = 3</text>
<text text-anchor="middle" x="490.12" y="-251.2" font-family="Helvetica,sans-Serif" font-size="14.00">value = [0, 1, 2]</text>
<text text-anchor="middle" x="490.12" y="-236.2" font-family="Helvetica,sans-Serif" font-size="14.00">class = virginica</text>
</g>
<!-- 12&#45;&gt;13 -->
<g id="edge13" class="edge">
<title>12&#45;&gt;13</title>
<path fill="none" stroke="black" d="M492.73,-341.58C492.38,-331.32 492,-320.27 491.64,-309.85"/>
<polygon fill="black" stroke="black" points="495.11,-309.74 491.27,-299.86 488.11,-309.97 495.11,-309.74"/>
</g>
<!-- 14 -->
<g id="node15" class="node">
<title>14</title>
<path fill="#8139e5" stroke="black" d="M668.38,-298.5C668.38,-298.5 575.88,-298.5 575.88,-298.5 569.88,-298.5 563.88,-292.5 563.88,-286.5 563.88,-286.5 563.88,-242.5 563.88,-242.5 563.88,-236.5 569.88,-230.5 575.88,-230.5 575.88,-230.5 668.38,-230.5 668.38,-230.5 674.38,-230.5 680.38,-236.5 680.38,-242.5 680.38,-242.5 680.38,-286.5 680.38,-286.5 680.38,-292.5 674.38,-298.5 668.38,-298.5"/>
<text text-anchor="middle" x="622.12" y="-281.2" font-family="Helvetica,sans-Serif" font-size="14.00">entropy = 0.0</text>
<text text-anchor="middle" x="622.12" y="-266.2" font-family="Helvetica,sans-Serif" font-size="14.00">samples = 43</text>
<text text-anchor="middle" x="622.12" y="-251.2" font-family="Helvetica,sans-Serif" font-size="14.00">value = [0, 0, 43]</text>
<text text-anchor="middle" x="622.12" y="-236.2" font-family="Helvetica,sans-Serif" font-size="14.00">class = virginica</text>
</g>
<!-- 12&#45;&gt;14 -->
<g id="edge14" class="edge">
<title>12&#45;&gt;14</title>
<path fill="none" stroke="black" d="M538.89,-341.58C551.43,-330.12 565.05,-317.67 577.58,-306.22"/>
<polygon fill="black" stroke="black" points="579.61,-309.19 584.63,-299.86 574.88,-304.02 579.61,-309.19"/>
</g>
</g>
</svg>
